# xmcd
#
# Track frame offsets:
#	150
#	16710
#	31776
#	47129
#	63854
#
# Disc length: 1059 seconds
#
# Revision: 0
# Processed by: cddbd v1.5PL3 Copyright (c) Steve Scherf et al.
# Submitted via: dBpowerAMP V4.0
#
DISCID=2f042105
DTITLE=Various Artist - BMG Country Radio - Comp. #54 Feb 1998
DYEAR=1998
DGENRE=Country
TTITLE0=Mindy McCready - You'll Never Know
TTITLE1=Alabama - She's Got That Look In Her Eyes
TTITLE2=Lonestar - Say When
TTITLE3=Lee Roy Parnell - All That Matters
TTITLE4=The Thompson Brothers Band - Back On The Farm
EXTD=BMG Country Radio Sampler CD Feb 1998
EXTT0=
EXTT1=
EXTT2=
EXTT3=
EXTT4=
PLAYORDER=
